<?xml version="1.0" encoding="utf-8"?>
<!-- Generator: Adobe Illustrator 22.0.1, SVG Export Plug-In . SVG Version: 6.00 Build 0)  -->
<svg version="1.1" id="Content" xmlns="http://www.w3.org/2000/svg" xmlns:xlink="http://www.w3.org/1999/xlink" x="0px" y="0px"
	 viewBox="0 0 267.9 56.6" style="enable-background:new 0 0 267.9 56.6;" xml:space="preserve">
<style type="text/css">
	.st0{fill:#FFFFFF;}
	.st1{fill:#FDB714;}
	.st2{fill:#015CAB;}
	.st3{fill:#00A98F;}
	.st4{fill:#E82C2A;}
	.st5{fill:#AC0871;}
	.st6{fill:#74A333;}
	.st7{fill:#F47521;}
	.st8{fill:#008FB4;}
</style>
<g>
	<g>
		<g>
			
				<rect x="18.7" y="25.4" transform="matrix(-0.7071 -0.7071 0.7071 -0.7071 9.251 76.272)" class="st0" width="3.5" height="21.6"/>
		</g>
		<g>
			
				<rect x="34.8" y="9.3" transform="matrix(-0.7071 -0.7071 0.7071 -0.7071 48.1739 60.1496)" class="st0" width="3.5" height="21.6"/>
		</g>
		<g>
			
				<rect x="35" y="26.6" transform="matrix(0.7071 -0.7071 0.7071 0.7071 -15.2084 36.7164)" class="st0" width="3.5" height="20.2"/>
		</g>
		<g>
			
				<rect x="18.7" y="10.3" transform="matrix(0.7071 -0.7071 0.7071 0.7071 -8.4591 20.4225)" class="st0" width="3.5" height="20.2"/>
		</g>
		<g>
			
				<rect x="37.6" y="17.3" transform="matrix(6.123234e-17 -1 1 6.123234e-17 10.9938 67.6358)" class="st0" width="3.5" height="22"/>
		</g>
		<g>
			
				<rect x="16.2" y="17.3" transform="matrix(6.123234e-17 -1 1 6.123234e-17 -10.3329 46.3091)" class="st0" width="3.5" height="22"/>
		</g>
		<g>
			<rect x="26.6" y="6.3" class="st0" width="3.5" height="22"/>
		</g>
		<g>
			<rect x="26.6" y="28.3" class="st0" width="3.5" height="22"/>
		</g>
		<g>
			<circle class="st0" cx="28.3" cy="28.3" r="6.7"/>
		</g>
		<g>
			<circle class="st1" cx="49.9" cy="28.3" r="6.7"/>
		</g>
		<g>
			<circle class="st2" cx="6.7" cy="28.3" r="6.7"/>
		</g>
		<g>
			<circle class="st3" cx="28.3" cy="49.9" r="6.7"/>
		</g>
		<g>
			<circle class="st4" cx="28.3" cy="6.7" r="6.7"/>
		</g>
		<g>
			<path class="st5" d="M8,8c-2.6,2.6-2.6,6.9,0,9.5c2.6,2.6,6.9,2.6,9.5,0c2.6-2.6,2.6-6.9,0-9.5C14.9,5.4,10.7,5.4,8,8z"/>
		</g>
		<g>
			<path class="st6" d="M39.1,39.1c-2.6,2.6-2.6,6.9,0,9.5c2.6,2.6,6.9,2.6,9.5,0c2.6-2.6,2.6-6.9,0-9.5
				C46,36.5,41.7,36.5,39.1,39.1z"/>
		</g>
		<g>
			<path class="st7" d="M39.1,8c-2.6,2.6-2.6,6.9,0,9.5c2.6,2.6,6.9,2.6,9.5,0c2.6-2.6,2.6-6.9,0-9.5C46,5.4,41.7,5.4,39.1,8z"/>
		</g>
		<g>
			<circle class="st8" cx="12.8" cy="43.9" r="6.7"/>
		</g>
	</g>
	<g>
		<g>
			<path class="st0" d="M86.3,37.2v-7.8H78v7.8h-4.4V17.9H78v7.4h8.3v-7.4h4.4v19.3H86.3z"/>
			<path class="st0" d="M98.3,37.2V17.9h13.5v3.9h-9.3v3.7h8.5v3.7h-8.5v4h9.6v3.9H98.3z"/>
			<path class="st0" d="M117.6,21.8v-3.9h16v3.9h-5.8v15.4h-4.4V21.8H117.6z"/>
			<path class="st0" d="M139.9,20.4c1.9-1.9,4.4-2.9,7.4-2.9c3,0,5.5,0.9,7.4,2.7c1.9,1.8,2.9,4.2,2.9,7.3c0,2.9-1,5.3-2.9,7.2
				c-1.9,1.9-4.4,2.8-7.3,2.8c-3,0-5.5-0.9-7.4-2.7c-1.9-1.8-2.9-4.2-2.9-7.3C137.1,24.7,138,22.3,139.9,20.4z M143.4,31.7
				c1.1,1.1,2.4,1.7,3.9,1.7c1.8,0,3.1-0.6,4.1-1.6c1-1.1,1.5-2.5,1.5-4.2c0-1.7-0.5-3.1-1.6-4.2c-1.1-1.1-2.4-1.6-4-1.6
				c-1.6,0-3,0.6-4,1.6c-1,1.1-1.6,2.5-1.6,4.2C141.8,29.2,142.3,30.5,143.4,31.7z"/>
			<path class="st0" d="M174.7,37.2V22h-3.9l-0.4,3.6c-1.2,10.2-3.5,12.3-8.1,11.5l0.1-4.4c0.7,0.1,1.2,0.1,1.9-0.7
				c0.3-0.4,0.6-1,0.9-1.7c0.5-1.5,1-4.5,1.3-8.6l0.3-3.9h12.6v19.3H174.7z"/>
			<path class="st0" d="M188,20.4c1.9-1.9,4.4-2.9,7.4-2.9c3,0,5.5,0.9,7.4,2.7c1.9,1.8,2.9,4.2,2.9,7.3c0,2.9-1,5.3-2.9,7.2
				c-1.9,1.9-4.4,2.8-7.3,2.8c-3,0-5.5-0.9-7.4-2.7c-1.9-1.8-2.9-4.2-2.9-7.3C185.1,24.7,186.1,22.3,188,20.4z M191.4,31.7
				c1.1,1.1,2.4,1.7,3.9,1.7c1.8,0,3.1-0.6,4.1-1.6c1-1.1,1.5-2.5,1.5-4.2c0-1.7-0.5-3.1-1.6-4.2c-1.1-1.1-2.4-1.6-4-1.6
				c-1.6,0-3,0.6-4,1.6c-1,1.1-1.6,2.5-1.6,4.2C189.8,29.2,190.4,30.5,191.4,31.7z"/>
			<path class="st0" d="M211.6,37.2V17.9h12.2V22h-7.8v15.2H211.6z"/>
			<path class="st0" d="M233.3,37.2h-3.9V17.9h4.4v12l8.6-12h3.9v19.3h-4.4v-12L233.3,37.2z"/>
			<path class="st0" d="M263.8,37.2V31h-3.5l-3.7,6.2h-4.9l4.5-7.2c-2-1.2-3-2.9-3-5.3c0-2,0.7-3.7,2-5c1.4-1.3,3.5-2,6.3-2
				c0.4,0,2.8,0,4.1,0.1c1.3,0,1.9,0.1,2.2,0.1v19.3H263.8z M263.8,26.8V22c-0.4-0.1-2.4-0.1-3.1-0.1c-1.5,0-2.7,1-2.7,2.5
				c0,1.4,0.9,2.2,2,2.4H263.8z"/>
		</g>
	</g>
</g>
</svg>
