<svg width="152" height="32" fill="none" xmlns="http://www.w3.org/2000/svg">
    <path d="M6.509 24.092l1.4 1.4 8.634-8.636-1.399-1.4-8.635 8.636zm9.134-9.114l1.399 1.399 8.635-8.635-1.399-1.4-8.635 8.636zm1.784 1.023l-1.4 1.4 8.076 8.075 1.4-1.4-8.076-8.075z" fill="#000" />
    <path d="M8.21 6.789L6.811 8.188l8.076 8.076 1.399-1.4L8.21 6.79z" fill="#000" />
    <path d="M15.997 15.003v1.978h12.438v-1.978H15.997z" fill="#000" />
    <path d="M3.94 15.045v1.978h12.438v-1.978H3.939z" fill="#000" />
    <path d="M17.018 3.562h-1.979V16h1.979V3.562zm0 12.438h-1.979v12.438h1.979V16z" fill="#000" />
    <path d="M16 19.788a3.788 3.788 0 1 0 0-7.576 3.788 3.788 0 0 0 0 7.576z" fill="#000" />
    <path d="M28.212 19.788a3.788 3.788 0 1 0 0-7.576 3.788 3.788 0 0 0 0 7.576z" fill="#FDB714" />
    <path d="M3.788 19.788a3.788 3.788 0 1 0 0-7.576 3.788 3.788 0 0 0 0 7.576z" fill="#015CAB" />
    <path d="M16 32a3.788 3.788 0 1 0 0-7.576A3.788 3.788 0 0 0 16 32z" fill="#00A98F" />
    <path d="M16 7.576A3.788 3.788 0 1 0 16 0a3.788 3.788 0 0 0 0 7.576z" fill="#E82C2A" />
    <path d="M7.237 11.025a3.788 3.788 0 1 0 0-7.576 3.788 3.788 0 0 0 0 7.576z" fill="#AC0871" />
    <path d="M24.82 28.608a3.788 3.788 0 1 0 0-7.576 3.788 3.788 0 0 0 0 7.576z" fill="#74A333" />
    <path d="M24.82 11.025a3.788 3.788 0 1 0 0-7.576 3.788 3.788 0 0 0 0 7.576z" fill="#F47521" />
    <path d="M7.237 28.608a3.788 3.788 0 1 0 0-7.576 3.788 3.788 0 0 0 0 7.576z" fill="#008FB4" />
    <path d="M48.792 21.032v-4.41h-4.693v4.41H41.61V10.12h2.49v4.184h4.693V10.12h2.487v10.912h-2.487zm6.784 0V10.12h7.633v2.205H57.95v2.092h4.805v2.092H57.95v2.261h5.427v2.205h-7.802v.057zm10.912-8.707V10.12h9.046v2.205h-3.28v8.707h-2.487v-8.707h-3.28zm12.607-.791c1.074-1.075 2.488-1.64 4.184-1.64 1.696 0 3.11.509 4.184 1.527 1.074 1.017 1.64 2.374 1.64 4.127 0 1.64-.566 2.996-1.64 4.07-1.074 1.075-2.488 1.583-4.127 1.583-1.697 0-3.11-.508-4.184-1.526-1.074-1.018-1.64-2.375-1.64-4.127 0-1.583.509-2.94 1.583-4.014zm1.979 6.388c.622.622 1.357.961 2.205.961 1.018 0 1.753-.339 2.318-.904.565-.622.848-1.414.848-2.375 0-.96-.283-1.752-.905-2.374-.621-.622-1.356-.905-2.261-.905s-1.696.34-2.261.905a3.434 3.434 0 0 0-.905 2.374c.056.905.34 1.64.961 2.318zm17.696 3.11v-8.594h-2.205l-.226 2.035c-.678 5.767-1.978 6.955-4.58 6.502l.057-2.487c.396.056.679.056 1.075-.396.17-.226.339-.566.508-.961.283-.848.566-2.545.735-4.863l.17-2.205h7.124v10.912H98.77v.057zm7.52-9.498c1.074-1.075 2.488-1.64 4.184-1.64 1.696 0 3.11.509 4.183 1.527 1.075 1.017 1.64 2.374 1.64 4.127 0 1.64-.565 2.996-1.64 4.07-1.074 1.075-2.487 1.583-4.127 1.583-1.696 0-3.11-.508-4.184-1.526-1.074-1.018-1.64-2.375-1.64-4.127-.056-1.583.51-2.94 1.584-4.014zm1.922 6.388c.622.622 1.357.961 2.205.961 1.018 0 1.753-.339 2.318-.904.566-.622.848-1.414.848-2.375 0-.96-.282-1.752-.904-2.374-.622-.622-1.357-.905-2.262-.905-.904 0-1.696.34-2.261.905a3.434 3.434 0 0 0-.905 2.374c.057.905.396 1.64.961 2.318zm11.421 3.11V10.12h6.898v2.318h-4.41v8.594h-2.488zm12.267 0h-2.204V10.12h2.488v6.785l4.862-6.785h2.205v10.912h-2.488v-6.785l-4.862 6.785zm17.245 0v-3.505h-1.979l-2.092 3.505h-2.77l2.544-4.07c-1.13-.68-1.696-1.64-1.696-2.997 0-1.13.396-2.092 1.13-2.827.792-.735 1.923-1.13 3.563-1.13.226 0 1.583 0 2.318.056.735 0 1.074.056 1.243.056v10.912h-2.261zm0-5.88v-2.714c-.226-.056-1.357-.056-1.753-.056-.848 0-1.526.565-1.526 1.413 0 .792.509 1.244 1.13 1.357h2.149z" fill="#000" />
</svg>